<svg width="76" height="74" viewBox="0 0 76 74" fill="none" xmlns="http://www.w3.org/2000/svg">
<path d="M16.8281 73.0039H15.0468V69.3945H11.2031V55.9648H18.6328V69.3945H16.8281V73.0039ZM16.7578 67.5664V57.6289L12.9843 57.6523V67.5664H16.7578ZM24.2578 57.6289V61.707H28.0312V57.6289H24.2578ZM29.9062 69.3945H28.0312V63.3945H24.2578V69.3945H22.4765V55.9648H29.9062V69.3945ZM36.0937 67.707H40.9921V69.3945H33.7499V67.707L39.3046 57.6992H33.7499V55.9648H41.1796V57.7695L36.0937 67.707ZM46.8046 57.6289V61.707H50.5781V57.6289H46.8046ZM52.4531 69.3945H50.5781V63.3945H46.8046V69.3945H45.0234V55.9648H52.4531V69.3945ZM61.9218 73.0039H60.1406V69.3945H56.2968V55.9648H63.7265V69.3945H61.9218V73.0039ZM61.8515 67.5664V57.6289L58.0781 57.6523V67.5664H61.8515Z" fill="white"/>
<path fill-rule="evenodd" clip-rule="evenodd" d="M38 12.8542L14.168 0L11.2042 4.79576L11.2044 4.79585L0 22.9272L15.2188 38.6698L19.8993 34.7327L19.8988 34.7323L28.0979 27.8113L23.8505 23.4116L19.4217 18.9513L15.209 22.6304L19.5441 27.037L15.6486 30.3165L7.76594 22.1267L16.6585 7.73764L34.0474 17.1166V50.3949H41.868V17.1623L59.3415 7.73764L68.2341 22.1267L60.3514 30.3165L56.4559 27.037L60.791 22.6304L56.5783 18.9513L52.1495 23.4116L47.9021 27.8113L56.1012 34.7323L56.1007 34.7327L60.7812 38.6698L76 22.9272L64.7956 4.79585L64.7958 4.79576L61.832 0L38 12.8542Z" fill="white"/>
</svg>
