<svg width="116" height="116" viewBox="0 0 116 116" fill="none" xmlns="http://www.w3.org/2000/svg">
<g id="Logo-black 23" clip-path="url(#clip0_0_59)">
<path id="Vector" fill-rule="evenodd" clip-rule="evenodd" d="M95.6901 58.391L116.471 22.3978L108.718 17.9216L108.718 17.9218L79.4056 1L53.9555 23.9849L60.3204 31.0536L60.321 31.053L71.5098 43.4359L78.6226 37.0211L85.8333 30.3324L79.8855 23.97L72.7614 30.5172L67.4597 24.634L80.6998 12.7288L103.962 26.1591L88.7993 52.4215L35 52.4215V64.2328H88.7254L103.962 90.6228L80.6998 104.053L67.4597 92.1482L72.7614 86.2646L79.8855 92.8123L85.8333 86.4497L78.6226 79.7611L71.5098 73.3463L60.321 85.7287L60.3204 85.7281L53.9555 92.7972L79.4056 115.782L108.718 98.8599L108.718 98.8605L116.471 94.3841L95.6901 58.391Z" fill="black"/>
</g>
<defs>
<clipPath id="clip0_0_59">
<rect width="116" height="116" fill="white" transform="matrix(0 1 -1 0 116 0)"/>
</clipPath>
</defs>
</svg>
