<svg width="116" height="116" viewBox="0 0 116 116" fill="none" xmlns="http://www.w3.org/2000/svg">
<path fill-rule="evenodd" clip-rule="evenodd" d="M20.7807 58.3912L0 94.3845L7.75303 98.8607L7.75321 98.8604L37.0652 115.782L62.5153 92.7973L56.1504 85.7286L56.1498 85.7292L44.961 73.3463L37.8483 79.7611L30.6375 86.4498L36.5854 92.8123L43.7094 86.265L49.0112 92.1483L35.771 104.053L12.509 90.6231L27.6716 64.3608H81.4709V52.5495L27.7454 52.5495L12.509 26.1595L35.771 12.729L49.0112 24.6341L43.7094 30.5176L36.5854 23.97L30.6375 30.3326L37.8483 37.0211L44.961 43.4359L56.1498 31.0535L56.1504 31.0541L62.5153 23.9851L37.0652 1.00023L7.75321 17.9223L7.75303 17.9217L0 22.3982L20.7807 58.3912Z" fill="black"/>
</svg>
