<svg width="60" height="60" viewBox="0 0 60 60" fill="none" xmlns="http://www.w3.org/2000/svg">
<path fill-rule="evenodd" clip-rule="evenodd" d="M29.507 19.5798L11.1865 9.01025L8.90808 12.9536L8.90823 12.9537L0.294998 27.8624L11.9943 40.8068L15.5923 37.5695L15.592 37.5692L21.8949 31.8784L18.6298 28.2607L15.2252 24.5931L11.9867 27.6183L15.3193 31.2417L12.3247 33.9383L6.26497 27.2041L13.101 15.3726L26.4686 23.0846V50.448H32.4805V23.1221L45.913 15.3726L52.7492 27.2041L46.6895 33.9383L43.6947 31.2417L47.0275 27.6183L43.7889 24.5931L40.3844 28.2607L37.1193 31.8784L43.422 37.5692L43.4217 37.5695L47.0198 40.8068L58.7191 27.8624L50.1058 12.9537L50.106 12.9536L47.8275 9.01025L29.507 19.5798Z" fill="black"/>
</svg>
